<?xml version="1.0" standalone="no"?>
<!DOCTYPE svg PUBLIC "-//W3C//DTD SVG 20010904//EN"
 "http://www.w3.org/TR/2001/REC-SVG-20010904/DTD/svg10.dtd">
<svg version="1.0" xmlns="http://www.w3.org/2000/svg"
 width="512.000000pt" height="512.000000pt" viewBox="0 0 512.000000 512.000000"
 preserveAspectRatio="xMidYMid meet">
<metadata>
Created by potrace 1.14, written by Peter Selinger 2001-2017
</metadata>
<g transform="translate(0.000000,512.000000) scale(0.100000,-0.100000)"
fill="#000000" stroke="none">
<path d="M1655 5111 c-89 -23 -173 -80 -221 -151 -23 -34 -26 -35 -92 -36
-246 -4 -459 -163 -536 -399 -9 -27 -17 -63 -18 -79 -2 -15 -7 -30 -13 -32 -5
-2 -107 -5 -225 -7 -153 -3 -228 -9 -261 -19 -110 -36 -216 -136 -262 -250
l-22 -53 -2 -1735 c-2 -1164 1 -1750 8 -1780 37 -161 158 -282 319 -319 30 -7
506 -10 1435 -8 l1390 2 67 32 c116 55 202 154 233 272 6 25 13 84 14 131 1
46 4 87 7 91 2 4 21 13 42 19 20 6 80 32 134 57 l96 46 407 -407 c223 -224
425 -418 447 -432 53 -34 89 -45 164 -49 134 -8 263 68 320 190 46 100 39 231
-19 322 -14 22 -209 224 -432 448 l-407 407 30 61 c66 136 114 285 130 407 13
104 7 330 -12 425 -34 170 -105 340 -203 488 -62 93 -237 268 -333 334 -89 60
-231 133 -312 159 l-58 19 -1 390 c0 215 -3 403 -5 419 -11 62 -64 158 -117
209 -108 104 -182 125 -453 126 -137 0 -200 4 -205 12 -3 6 -9 32 -13 57 -11
80 -81 208 -152 278 -117 116 -219 158 -403 168 -49 2 -66 7 -74 22 -25 45
-95 107 -153 135 -49 24 -79 32 -136 35 -40 1 -86 -1 -103 -5z"/>
</g>
</svg>
